<svg xmlns="http://www.w3.org/2000/svg" viewBox="0 0 25 22">
    <g fill="silver" fill-rule="evenodd">
        <path d="M12.47 15.486c0 .347-.263.628-.588.628-.325 0-.588-.281-.588-.628V13.6h-.588v3.771c0 .348-.263.629-.588.629-.325 0-.589-.281-.589-.629v-6.914H6.59c-.326 0-.589-.281-.589-.628 0-.348.263-.629.588-.629h8.824c.325 0 .588.281.588.629 0 .347-.263.628-.588.628H12.47v5.029zM11 6c.637 0 1.154.537 1.154 1.2 0 .663-.517 1.2-1.154 1.2-.637 0-1.154-.537-1.154-1.2 0-.663.517-1.2 1.154-1.2z"/>
        <path d="M3.726 3.726c4.261-4.26 11.155-4.298 15.365-.088 3.001 3.002 3.853 7.33 2.536 11.125l1.978-1.046a.769.769 0 011.137.712.79.79 0 01-.419.661l-3.853 2.035a.771.771 0 01-.982-.212.765.765 0 01-.067-.125l-2.17-4.377a.786.786 0 01.737-1.17c.288.02.538.2.65.464l1.413 2.85c1.282-3.317.602-7.147-2.064-9.813-3.62-3.62-9.506-3.588-13.17.076-3.663 3.663-3.695 9.55-.075 13.169.77.77 1.618 1.415 2.52 1.854a.765.765 0 01.489.646.786.786 0 01-1.176.747c-1.088-.528-2.07-1.275-2.937-2.143-4.21-4.21-4.172-11.104.088-15.365z"/>
    </g>
</svg>
