<svg xmlns="http://www.w3.org/2000/svg" viewBox="0 0 16 20">
    <path d="M8 4c1.555 0 3.007.444 4.235 1.211l.662-.788a.571.571 0 01.805-.07l1.75 1.468a.571.571 0 01.071.805l-.83.99A8 8 0 118 4zm0 2a6 6 0 100 12A6 6 0 008 6zm.869 1.778a.27.27 0 01.274.266v5.023a.27.27 0 01-.274.266H7.13a.27.27 0 01-.274-.266V8.044a.27.27 0 01.274-.266zM5.143 2.222a.564.564 0 01-.572-.555V.556c0-.307.256-.556.572-.556h5.714c.316 0 .572.249.572.556v1.11a.564.564 0 01-.572.556H5.143z" fill="silver" fill-rule="nonzero"/>
</svg>
