<svg xmlns="http://www.w3.org/2000/svg" viewBox="0 0 60 57">
    <path d="M20.546 28.25c-.989 7.338-.557 16.79.672 22.136 5.995.704 22.779.814 26.46.271.14-.02.272-.035.465-.054.68-.068.877-.097 1.125-.181.792-.268 1.27-1.161 1.142-4.017a2.064 2.064 0 01.915-1.8c1.926-1.304 2.207-2.684 1.429-5.282-.353-1.178.411-2.396 1.649-2.628.72-.135 1.505-3.416.787-4.017a2.046 2.046 0 01-.08-3.085c.385-.357.89-1.655.89-2.647.002-1.857-.54-2.534-2.386-2.837-1.267-.208-2.715-.342-4.307-.406-2.644-.107-5.5-.021-8.29.188a78.391 78.391 0 00-2.524.232 2.155 2.155 0 01-2.12-1.044 2.55 2.55 0 01-.284-.782c-.26-1.292.027-3.705 1.146-7.897 1.05-3.93-1.718-7.81-5.047-9.267-.474-.207-.745-.185-1.02.159.038.97.057 1.955.045 2.882-.01.782-.042 1.484-.101 2.093-.366 3.792-1.098 5.962-3.327 10.145-.794 1.485-1.999 2.996-3.507 4.524a39.032 39.032 0 01-2.873 2.62c-.329.273-.619.506-.86.694zm-.875-5.264a33.067 33.067 0 001.593-1.534c1.24-1.28 2.202-2.511 2.781-3.614 1.964-3.757 2.522-5.444 2.83-8.686.045-.488.072-1.089.081-1.774a52.61 52.61 0 00-.042-2.694 47.627 47.627 0 00-.045-.944 2.091 2.091 0 01.296-1.206c.221-.367.58-.82 1.103-1.266C29.76-.005 31.745-.438 33.898.52c4.986 2.224 9.013 7.978 7.367 14.26-.475 1.814-.78 3.254-.945 4.357l.265-.021c2.92-.224 5.908-.315 8.719-.2 1.744.072 3.351.224 4.798.466 3.944.66 5.901 3.154 5.898 7.018-.001 1.417-.424 2.982-1.09 4.219 1.216 2.722.313 6.81-1.906 8.743.545 3.052-.128 5.569-2.531 7.623-.061 3.907-1.454 6.23-3.993 7.105a6.882 6.882 0 01-1.21.292c-.269.042-.301.045-.868.102a5.653 5.653 0 00-.254.03c-3.882.583-19.505.513-26.56-.178-.222.277-.517.501-.87.642-5.789 2.297-7.787 2.476-17.057 1.338a2.115 2.115 0 01-1.767-1.474c-2.663-8.661-2.328-18.199-.176-30.99a2.12 2.12 0 012.643-1.685c4.794 1.286 7.935 1.398 14.321.695.351-.04.687.009.99.123zM5.281 27c-1.606 10.412-1.82 18.457.037 25.51 6.314.749 8.23.695 11.682-.55-1.466-5.867-1.984-16.253-.933-24.432-4.27.352-7.28.227-10.786-.528z" fill="#FFF" fill-rule="nonzero"/>
</svg>
